<svg id="Layer_1" data-name="Layer 1" xmlns="http://www.w3.org/2000/svg" xmlns:xlink="http://www.w3.org/1999/xlink" viewBox="0 0 195.72 44"><defs><clipPath id="clip-path" transform="translate(-459.86 -377.29)"><path d="M460.3,407c0,9.47,6.49,14.25,14.5,14.25s14.5-4.81,14.5-14.25-11.43-23.75-14.5-23.75S460.3,397.55,460.3,407" fill="none"/></clipPath><linearGradient id="linear-gradient" x1="21.22" y1="1.04" x2="22.22" y2="1.04" gradientTransform="translate(44.69 -800.36) rotate(90) scale(38 29)" gradientUnits="userSpaceOnUse"><stop offset="0" stop-color="#75e7ff"/><stop offset="1" stop-color="#0f91ff"/></linearGradient><clipPath id="clip-path-2" transform="translate(-459.86 -377.29)"><path d="M474.78,383.29c-4.4,3.41-12.48,14.78-12.48,22.75,0,9.47,6.49,14.25,14.5,14.25a17,17,0,0,0,6.34-1.16c3.72-2.27,6.16-6.31,6.16-12.09,0-9.44-11.43-23.75-14.5-23.75h.06" fill="none"/></clipPath><linearGradient id="linear-gradient-2" x1="21.79" y1="1.1" x2="22.79" y2="1.1" gradientTransform="translate(45.69 -800.36) rotate(90) scale(37 27)" gradientUnits="userSpaceOnUse"><stop offset="0" stop-color="#00d3ff"/><stop offset="1" stop-color="#098eff"/></linearGradient><clipPath id="clip-path-3" transform="translate(-459.86 -377.29)"><path d="M486.3,388.52c0,4.49,3.13,6.75,7,6.75s7-2.28,7-6.75-5.52-11.25-7-11.25-7,6.77-7,11.25" fill="none"/></clipPath><linearGradient id="linear-gradient-3" x1="44.8" y1="2.16" x2="45.8" y2="2.16" gradientTransform="translate(63.19 -806.36) rotate(90) scale(18 14)" xlink:href="#linear-gradient"/><clipPath id="clip-path-4" transform="translate(-459.86 -377.29)"><path d="M493.29,377.29c-2.12,1.62-6,7-6,10.78,0,4.49,3.14,6.75,7,6.75a8.2,8.2,0,0,0,3.06-.55,6.29,6.29,0,0,0,3-5.73c0-4.47-5.52-11.25-7-11.25Z" fill="none"/></clipPath><linearGradient id="linear-gradient-4" x1="46.01" y1="2.27" x2="47.04" y2="2.27" gradientTransform="translate(63.67 -806.36) rotate(90) scale(17.53 13.03)" xlink:href="#linear-gradient-2"/></defs><title>water</title><path d="M526.09,393.07a14.59,14.59,0,0,1,1.86-.62,9.77,9.77,0,0,1,2.57-.35,9.29,9.29,0,0,1,3.78.68,2.94,2.94,0,0,1,1.83,2c.4,1.47.77,2.85,1.11,4.13s.67,2.5,1,3.67.64,2.33.94,3.48.61,2.36.89,3.62h.27q.49-3.28.87-6.29t.7-5.89c.22-1.92.43-3.83.65-5.72s.43-3.81.65-5.75a8.45,8.45,0,0,1,4.26-1.14,6.63,6.63,0,0,1,3.46.87,3.12,3.12,0,0,1,1.46,2.91,31,31,0,0,1-.25,3.38c-.16,1.46-.37,3.09-.64,4.89s-.59,3.69-1,5.67-.74,3.87-1.13,5.67-.8,3.43-1.22,4.88a24.58,24.58,0,0,1-1.16,3.38,6.23,6.23,0,0,1-2.65,1.24,14.84,14.84,0,0,1-3.78.49,12,12,0,0,1-4.29-.68,3.19,3.19,0,0,1-2.13-1.92q-.71-2.14-1.51-5.13T531,404q-.76,3.51-1.57,6.86c-.54,2.23-1,4.12-1.46,5.67a6.12,6.12,0,0,1-2.43,1.24,12.45,12.45,0,0,1-3.56.49,13.5,13.5,0,0,1-4.4-.68,4.12,4.12,0,0,1-2.57-1.92,19.24,19.24,0,0,1-1.05-2.88c-.38-1.28-.76-2.74-1.16-4.38s-.8-3.41-1.21-5.32-.8-3.81-1.14-5.72-.66-3.77-.94-5.59-.51-3.48-.65-5a7.75,7.75,0,0,1,2.1-1.29,7.13,7.13,0,0,1,2.92-.6,5.91,5.91,0,0,1,3.38.9,4.12,4.12,0,0,1,1.64,3q.87,5.5,1.43,9.18t.92,6c.24,1.57.41,2.78.51,3.65s.22,1.55.33,2h.27c.32-1.44.63-2.77.92-4s.58-2.45.89-3.69.62-2.58.94-4S525.73,394.91,526.09,393.07Z" transform="translate(-459.86 -377.29)" fill="#26232a"/><path d="M567.67,390.75a22.57,22.57,0,0,1,5.32.59,11.94,11.94,0,0,1,4.1,1.81,8.2,8.2,0,0,1,2.62,3.08,9.88,9.88,0,0,1,.92,4.4v12.1a3.33,3.33,0,0,1-.78,2.29,7.81,7.81,0,0,1-1.87,1.54q-3.51,2.12-9.88,2.11a22.59,22.59,0,0,1-5.16-.54,12.25,12.25,0,0,1-3.94-1.62,7.46,7.46,0,0,1-2.54-2.76,8.17,8.17,0,0,1-.89-3.88,7.32,7.32,0,0,1,2.22-5.73c1.47-1.33,3.76-2.16,6.85-2.48l7.08-.76v-.38a2.32,2.32,0,0,0-1.38-2.24,9.28,9.28,0,0,0-4-.67,18.14,18.14,0,0,0-4,.43,21.38,21.38,0,0,0-3.51,1.08,3.69,3.69,0,0,1-1.19-1.48,4.64,4.64,0,0,1-.49-2.08,3.44,3.44,0,0,1,.68-2.24,5.23,5.23,0,0,1,2.08-1.44,16.44,16.44,0,0,1,3.69-.86A32.32,32.32,0,0,1,567.67,390.75ZM568.1,412a11.6,11.6,0,0,0,2-.19,4.73,4.73,0,0,0,1.65-.51V407l-3.89.32a6.12,6.12,0,0,0-2.48.65,1.74,1.74,0,0,0-1,1.62,2.16,2.16,0,0,0,.84,1.76A4.56,4.56,0,0,0,568.1,412Z" transform="translate(-459.86 -377.29)" fill="#26232a"/><path d="M595.42,408.79a2.22,2.22,0,0,0,.89,2,4.51,4.51,0,0,0,2.52.6,10.85,10.85,0,0,0,1.67-.14,8.66,8.66,0,0,0,1.51-.35,6.67,6.67,0,0,1,.84,1.33,4,4,0,0,1,.35,1.75,4.17,4.17,0,0,1-1.54,3.35c-1,.86-2.83,1.29-5.43,1.29q-4.74,0-7.31-2.16c-1.71-1.43-2.57-3.78-2.57-7V386.32c.4-.11,1-.22,1.7-.35a14.62,14.62,0,0,1,2.35-.19,6.87,6.87,0,0,1,3.7.84q1.32.84,1.32,3.54v3.45h7.08a10,10,0,0,1,.62,1.49,6.12,6.12,0,0,1,.3,2,3.75,3.75,0,0,1-.84,2.73,3.07,3.07,0,0,1-2.24.83h-4.92Z" transform="translate(-459.86 -377.29)" fill="#26232a"/><path d="M621.4,418.67a19.08,19.08,0,0,1-5.92-.89,13.54,13.54,0,0,1-4.75-2.68,12.24,12.24,0,0,1-3.18-4.48,15.77,15.77,0,0,1-1.17-6.32,14.65,14.65,0,0,1,1.17-6.12A12.11,12.11,0,0,1,610.6,394a12.45,12.45,0,0,1,4.32-2.43,16.12,16.12,0,0,1,5-.78,15.2,15.2,0,0,1,5.22.86,12.71,12.71,0,0,1,4,2.38,10.58,10.58,0,0,1,2.64,3.62,11.06,11.06,0,0,1,1,4.59,3.72,3.72,0,0,1-1,2.81,5.18,5.18,0,0,1-2.86,1.24l-13.34,2a4.52,4.52,0,0,0,2.43,2.67,9.61,9.61,0,0,0,4.21.89,15,15,0,0,0,4.19-.57,12.84,12.84,0,0,0,3.21-1.32,4.5,4.5,0,0,1,1.46,1.51,4,4,0,0,1-1.67,5.67,11.76,11.76,0,0,1-3.89,1.24A26.9,26.9,0,0,1,621.4,418.67Zm-1.52-21.22a5.33,5.33,0,0,0-2.24.43,4.45,4.45,0,0,0-1.53,1.11,4.56,4.56,0,0,0-.9,1.51,6.68,6.68,0,0,0-.35,1.7l9.24-1.51a4.13,4.13,0,0,0-1.19-2.16A4,4,0,0,0,619.88,397.45Z" transform="translate(-459.86 -377.29)" fill="#26232a"/><path d="M646.35,417.75a11.24,11.24,0,0,1-1.71.32,17,17,0,0,1-2.4.17,12.42,12.42,0,0,1-2.13-.17,3.56,3.56,0,0,1-1.59-.64,3.07,3.07,0,0,1-1-1.33,5.55,5.55,0,0,1-.35-2.18v-16.2a4.73,4.73,0,0,1,.45-2.14A5.09,5.09,0,0,1,639,394a9.3,9.3,0,0,1,2.13-1.27,22.41,22.41,0,0,1,2.73-1,24.13,24.13,0,0,1,3-.67,20.74,20.74,0,0,1,3.13-.25,7.44,7.44,0,0,1,4.11,1,3.65,3.65,0,0,1,1.51,3.27,5,5,0,0,1-.22,1.49,6.51,6.51,0,0,1-.54,1.32c-.75,0-1.53,0-2.32.11s-1.56.18-2.32.32-1.47.3-2.13.46a8.64,8.64,0,0,0-1.7.57Z" transform="translate(-459.86 -377.29)" fill="#26232a"/><g clip-path="url(#clip-path)"><rect y="6" width="29" height="38" fill="url(#linear-gradient)"/></g><g clip-path="url(#clip-path-2)"><rect x="2" y="6" width="28.14" height="37" fill="url(#linear-gradient-2)"/></g><g clip-path="url(#clip-path-3)"><rect x="26" width="14" height="18" fill="url(#linear-gradient-3)"/></g><g clip-path="url(#clip-path-4)"><rect x="27" width="14.14" height="18" fill="url(#linear-gradient-4)"/></g></svg>